<?xml version="1.0" encoding="UTF-8" standalone="no"?>
<!-- Created with Inkscape (http://www.inkscape.org/) -->

<svg
        width="16"
        height="16"
        viewBox="0 0 16 16"
        version="1.1"
        id="svg1"
        xml:space="preserve"
        xmlns="http://www.w3.org/2000/svg"
><defs
     id="defs1" />
    <g
            id="layer5"
            style="display:inline"
            transform="translate(-48,-195)"><rect
       style="display:inline;fill:#c0c0c0;fill-opacity:1"
       id="rect30-8"
       width="12"
       height="12"
       x="50"
       y="197" />
        <path
                style="fill:#ffffff;fill-opacity:1"
                d="m 50,209 -2,2 v -16 h 16 l -2,2 H 50 Z"
                id="path30-2"/>
        <path
                style="fill:#808080;fill-opacity:1"
                d="m 50,209 -2,2 h 16 v -16 l -2,2 v 12 z"
                id="path31-4"/>
        <path
                d="m 56,203 c 0,1 0,2 -0.7,2.5 -0.7,0.5 -2,0.5 -2.7,0.8 -0.6,0.4 -0.6,1 -0.6,1.7 h 8 c 0,-0.7 0,-1.3 -0.5,-1.7 C 59,206 58,206 57.5,205.5 57,205 57,204 57,203 Z"
                id="path48"
                style="display:inline"/>
        <path
                style="display:inline;fill:#ff0000;fill-opacity:1"
                d="m 56,203 -4,-2.5 4,-2.5 h 1 v 5 z"
                id="path49"/></g></svg>
