<?xml version="1.0" encoding="UTF-8"?>
<svg id="Layer_2" data-name="Layer 2" xmlns="http://www.w3.org/2000/svg" viewBox="0 0 16 16">
    <defs>
        <style>
            .cls-1 {
            fill: #967878;
            }

            .cls-2 {
            fill: #c00;
            }

            .cls-3 {
            fill: #cc6100;
            }

            .cls-4 {
            fill: #cca500;
            }
        </style>
    </defs>
    <g id="Hit_Mine">
        <rect class="cls-1" width="16" height="16" rx="2" ry="2"/>
        <path class="cls-2"
              d="M8,1l.73,2.81c.19.75,1.05,1.11,1.72.71l2.5-1.47-1.47,2.5c-.39.67-.04,1.53.71,1.72l2.81.73-2.81.73c-.75.19-1.11,1.05-.71,1.72l1.47,2.5-2.5-1.47c-.67-.39-1.53-.04-1.72.71l-.73,2.81-.73-2.81c-.19-.75-1.05-1.11-1.72-.71l-2.5,1.47,1.47-2.5c.39-.67.04-1.53-.71-1.72l-2.81-.73,2.81-.73c.75-.19,1.11-1.05.71-1.72l-1.47-2.5,2.5,1.47c.67.39,1.53.04,1.72-.71l.73-2.81Z"/>
        <path class="cls-3"
              d="M13,5.93l-1.79,1.35c-.48.36-.48,1.08,0,1.44l1.79,1.35-2.22-.31c-.59-.08-1.1.42-1.02,1.02l.31,2.22-1.35-1.79c-.36-.48-1.08-.48-1.44,0l-1.35,1.79.31-2.22c.08-.59-.42-1.1-1.02-1.02l-2.22.31,1.79-1.35c.48-.36.48-1.08,0-1.44l-1.79-1.35,2.22.31c.59.08,1.1-.42,1.02-1.02l-.31-2.22,1.35,1.79c.36.48,1.08.48,1.44,0l1.35-1.79-.31,2.22c-.08.59.42,1.1,1.02,1.02l2.22-.31Z"/>
        <path class="cls-4"
              d="M8,4l.42,1.6c.11.43.6.63.98.41l1.43-.84-.84,1.43c-.22.38-.02.87.41.98l1.6.42-1.6.42c-.43.11-.63.6-.41.98l.84,1.43-1.43-.84c-.38-.22-.87-.02-.98.41l-.42,1.6-.42-1.6c-.11-.43-.6-.63-.98-.41l-1.43.84.84-1.43c.22-.38.02-.87-.41-.98l-1.6-.42,1.6-.42c.43-.11.63-.6.41-.98l-.84-1.43,1.43.84c.38.22.87.02.98-.41l.42-1.6Z"/>
    </g>
</svg>