<?xml version="1.0" encoding="UTF-8" standalone="no"?>
<!-- Created with Inkscape (http://www.inkscape.org/) -->

<svg
        width="13"
        height="13"
        viewBox="0 0 13 13"
        version="1.1"
        id="svg1"
        xml:space="preserve"
        xmlns="http://www.w3.org/2000/svg"
><defs
     id="defs1" />
    <g
            id="layer7"
            style="display:inline"
            transform="translate(-101,-197)"><path
       d="m 107.5,197 -0.5,1.5 a 5,5 0 0 0 -2.7,1.1 l -1.4,-0.7 0.7,1.4 a 5,5 0 0 0 -1.1,2.7 l -1.5,0.5 1.5,0.5 a 5,5 0 0 0 1.1,2.7 l -0.7,1.4 1.4,-0.7 a 5,5 0 0 0 2.7,1.1 l 0.5,1.5 0.5,-1.5 a 5,5 0 0 0 2.7,-1.1 l 1.4,0.7 -0.7,-1.4 a 5,5 0 0 0 1.1,-2.7 l 1.5,-0.5 -1.5,-0.5 a 5,5 0 0 0 -1.1,-2.7 l 0.7,-1.4 -1.4,0.7 a 5,5 0 0 0 -2.7,-1.1 z"
       style="display:inline"
       id="path71" />
        <circle
                style="display:inline;fill:#ffffff;fill-opacity:1"
                id="path51"
                cx="106"
                cy="202"
                r="1"/></g></svg>
