<?xml version="1.0" encoding="UTF-8"?>
<svg id="Layer_2" data-name="Layer 2" xmlns="http://www.w3.org/2000/svg" viewBox="0 0 16 16">
    <defs>
        <style>
            .cls-1 {
            fill: #969696;
            }

            .cls-2 {
            fill: #333;
            }

            .cls-3 {
            fill: #c80000;
            }
        </style>
    </defs>
    <g id="Wrong_Mine">
        <rect class="cls-1" width="16" height="16" rx="2" ry="2"/>
        <path class="cls-2"
              d="M13.5,8c0,.28-.22.5-.5.5h-1.03c-.09.73-.38,1.39-.81,1.95l.73.73c.2.2.2.51,0,.71-.2.2-.51.2-.71,0l-.73-.73c-.56.43-1.22.72-1.95.81v1.03c0,.28-.22.5-.5.5s-.5-.22-.5-.5v-1.03c-.73-.09-1.39-.38-1.95-.81l-.73.73c-.2.2-.51.2-.71,0-.2-.2-.2-.51,0-.71l.73-.73c-.43-.56-.72-1.22-.81-1.95h-1.03c-.28,0-.5-.22-.5-.5s.22-.5.5-.5h1.03c.09-.73.38-1.39.81-1.95l-.73-.73c-.2-.2-.2-.51,0-.71s.51-.2.71,0l.73.73c.56-.43,1.22-.72,1.95-.81v-1.03c0-.28.22-.5.5-.5s.5.22.5.5v1.03c.73.09,1.39.38,1.95.81l.73-.73c.2-.2.51-.2.71,0s.2.51,0,.71l-.73.73c.43.56.72,1.22.81,1.95h1.03c.28,0,.5.22.5.5Z"/>
        <polygon class="cls-3"
                 points="9.06 8 13.48 12.42 12.42 13.48 8 9.06 3.58 13.48 2.52 12.42 6.94 8 2.52 3.58 3.58 2.52 8 6.94 12.42 2.52 13.48 3.58 9.06 8"/>
    </g>
</svg>