<?xml version="1.0" encoding="UTF-8"?>
<svg id="Layer_2" data-name="Layer 2" xmlns="http://www.w3.org/2000/svg" viewBox="0 0 16 16">
  <defs>
    <style>
      .cls-1 {
        fill: none;
      }

      .cls-2 {
        fill: #333;
      }
    </style>
  </defs>
  <g id="Mine">
    <rect class="cls-1" width="16" height="16"/>
    <path class="cls-2" d="M13.5,8c0,.28-.22.5-.5.5h-1.03c-.09.73-.38,1.39-.81,1.95l.73.73c.2.2.2.51,0,.71-.2.2-.51.2-.71,0l-.73-.73c-.56.43-1.22.72-1.95.81v1.03c0,.28-.22.5-.5.5s-.5-.22-.5-.5v-1.03c-.73-.09-1.39-.38-1.95-.81l-.73.73c-.2.2-.51.2-.71,0-.2-.2-.2-.51,0-.71l.73-.73c-.43-.56-.72-1.22-.81-1.95h-1.03c-.28,0-.5-.22-.5-.5s.22-.5.5-.5h1.03c.09-.73.38-1.39.81-1.95l-.73-.73c-.2-.2-.2-.51,0-.71s.51-.2.71,0l.73.73c.56-.43,1.22-.72,1.95-.81v-1.03c0-.28.22-.5.5-.5s.5.22.5.5v1.03c.73.09,1.39.38,1.95.81l.73-.73c.2-.2.51-.2.71,0s.2.51,0,.71l-.73.73c.43.56.72,1.22.81,1.95h1.03c.28,0,.5.22.5.5Z"/>
  </g>
</svg>